<?xml version="1.0" encoding="iso-8859-1"?>
<!-- Generator: Adobe Illustrator 19.0.0, SVG Export Plug-In . SVG Version: 6.00 Build 0)  -->
<svg version="1.1" id="Capa_1" xmlns="http://www.w3.org/2000/svg" xmlns:xlink="http://www.w3.org/1999/xlink" x="0px" y="0px"
	 viewBox="0 0 512 512" style="enable-background:new 0 0 512 512;" xml:space="preserve">
<path style="fill:#57B089;" d="M253.645,83.626c-12.357-38.34-47.84-63.369-66.034-74.058c-6.015-3.534-13.737-1.045-16.556,5.336
	c-8.527,19.302-22.718,60.34-10.36,98.68c12.357,38.34,47.84,63.369,66.034,74.058c6.015,3.534,13.737,1.045,16.556-5.336
	C251.811,163.004,266.001,121.966,253.645,83.626z"/>
<path style="opacity:0.1;enable-background:new    ;" d="M253.645,83.626c-12.357-38.34-47.84-63.369-66.034-74.058
	c-6.015-3.534-13.737-1.045-16.556,5.336c-8.527,19.302-22.718,60.34-10.36,98.68c12.357,38.34,47.84,63.369,66.034,74.058
	c6.015,3.534,13.737,1.045,16.556-5.336C251.811,163.004,266.001,121.966,253.645,83.626z"/>
<path style="opacity:0.05;enable-background:new    ;" d="M253.645,83.626c-5.257-16.313-14.707-30.206-25.224-41.621
	c-10.152,14.384-20.799,33.732-24.851,55.572c-15.572-10.459-32.917-16.625-47.654-20.259c-0.368,11.847,0.886,24.19,4.779,36.266
	c12.357,38.34,47.84,63.369,66.034,74.058c6.015,3.534,13.737,1.045,16.556-5.336C251.811,163.004,266.001,121.966,253.645,83.626z"
	/>
<path style="fill:#57B089;" d="M258.352,83.626c12.357-38.34,47.84-63.369,66.034-74.058c6.015-3.534,13.737-1.045,16.556,5.336
	c8.527,19.302,22.718,60.34,10.36,98.68c-12.358,38.34-47.84,63.369-66.034,74.058c-6.015,3.534-13.737,1.045-16.556-5.336
	C260.186,163.004,245.996,121.966,258.352,83.626z"/>
<path style="opacity:0.1;enable-background:new    ;" d="M258.352,83.626c12.357-38.34,47.84-63.369,66.034-74.058
	c6.015-3.534,13.737-1.045,16.556,5.336c8.527,19.302,22.718,60.34,10.36,98.68c-12.358,38.34-47.84,63.369-66.034,74.058
	c-6.015,3.534-13.737,1.045-16.556-5.336C260.186,163.004,245.996,121.966,258.352,83.626z"/>
<path style="opacity:0.05;enable-background:new    ;" d="M258.352,83.626c5.257-16.313,14.706-30.206,25.224-41.621
	c10.152,14.384,20.799,33.732,24.851,55.572c15.572-10.459,32.917-16.625,47.654-20.259c0.368,11.847-0.887,24.19-4.779,36.266
	c-12.357,38.34-47.84,63.369-66.034,74.058c-6.015,3.534-13.737,1.045-16.556-5.336C260.186,163.004,245.996,121.966,258.352,83.626
	z"/>
<path style="fill:#57B089;" d="M229.028,131.059c-26.503-30.335-68.99-39.302-89.927-41.932
	c-6.922-0.869-13.031,4.469-13.099,11.444c-0.205,21.101,2.979,64.406,29.483,94.742c26.503,30.335,68.99,39.302,89.927,41.932
	c6.922,0.869,13.031-4.469,13.099-11.445C258.716,204.699,255.532,161.393,229.028,131.059z"/>
<path style="opacity:0.05;enable-background:new    ;" d="M229.028,131.059c-26.503-30.335-68.99-39.302-89.927-41.932
	c-6.922-0.869-13.031,4.469-13.099,11.444c-0.205,21.101,2.979,64.406,29.483,94.742c26.503,30.335,68.99,39.302,89.927,41.932
	c6.922,0.869,13.031-4.469,13.099-11.445C258.716,204.699,255.532,161.393,229.028,131.059z"/>
<path style="opacity:0.05;enable-background:new    ;" d="M229.028,131.059c-9.428-10.792-20.881-18.867-32.665-24.927
	c-3.174,9.987-5.168,20.677-5.168,31.796c0,40.282,26.095,74.989,40.132,90.745c4.641,5.209,12.754,5.209,17.394,0
	c2.835-3.182,6.163-7.148,9.668-11.765C257.555,194.067,252.216,157.599,229.028,131.059z"/>
<path style="fill:#57B089;" d="M282.969,131.059c26.503-30.335,68.99-39.302,89.927-41.932c6.922-0.869,13.031,4.469,13.099,11.444
	c0.205,21.101-2.979,64.406-29.484,94.742c-26.503,30.335-68.99,39.302-89.927,41.932c-6.922,0.869-13.031-4.469-13.099-11.445
	C253.281,204.699,256.465,161.393,282.969,131.059z"/>
<path style="opacity:0.05;enable-background:new    ;" d="M282.969,131.059c26.503-30.335,68.99-39.302,89.927-41.932
	c6.922-0.869,13.031,4.469,13.099,11.444c0.205,21.101-2.979,64.406-29.484,94.742c-26.503,30.335-68.99,39.302-89.927,41.932
	c-6.922,0.869-13.031-4.469-13.099-11.445C253.281,204.699,256.465,161.393,282.969,131.059z"/>
<path style="opacity:0.05;enable-background:new    ;" d="M282.969,131.059c9.428-10.792,20.881-18.867,32.665-24.927
	c3.174,9.987,5.168,20.677,5.168,31.796c0,40.282-26.095,74.989-40.132,90.745c-4.641,5.209-12.754,5.209-17.394,0
	c-2.835-3.182-6.165-7.148-9.668-11.765C254.443,194.067,259.781,157.599,282.969,131.059z"/>
<path style="fill:#57B089;" d="M304.828,131.561c0-40.282-26.095-74.989-40.132-90.745c-4.641-5.209-12.754-5.209-17.394,0
	c-14.037,15.756-40.132,50.462-40.132,90.745s26.095,74.989,40.132,90.745c4.641,5.209,12.753,5.209,17.394,0
	C278.734,206.55,304.828,171.842,304.828,131.561z"/>
<path style="fill:#F3C74F;" d="M255.999,504.042c120.841,0,130.912-62.543,130.912-177.9s-87.2-138.984-130.912-138.984
	c-43.713,0-130.912,23.627-130.912,138.984S135.157,504.042,255.999,504.042z"/>
<g>
	<path style="fill:#E6595A;" d="M192.256,370.361h-21.288c-4.396,0-7.958-3.563-7.958-7.958s3.562-7.958,7.958-7.958h21.288
		c4.396,0,7.958,3.563,7.958,7.958S196.652,370.361,192.256,370.361z"/>
	<path style="fill:#E6595A;" d="M341.029,370.361h-21.288c-4.396,0-7.958-3.563-7.958-7.958s3.562-7.958,7.958-7.958h21.288
		c4.396,0,7.958,3.563,7.958,7.958S345.425,370.361,341.029,370.361z"/>
</g>
<g style="opacity:0.15;">
	<path d="M212.556,269.257c-2.036,0-4.073-0.777-5.628-2.331l-27.762-27.761c-3.108-3.108-3.108-8.147,0-11.254
		c3.109-3.108,8.147-3.108,11.254,0l27.762,27.762c3.108,3.108,3.108,8.147,0,11.253
		C216.63,268.479,214.593,269.257,212.556,269.257z"/>
	<path d="M184.795,269.257c-2.037,0-4.073-0.777-5.628-2.331c-3.108-3.108-3.108-8.147,0-11.253l27.762-27.762
		c3.11-3.109,8.148-3.108,11.255,0s3.108,8.147,0,11.254l-27.762,27.761C188.868,268.479,186.831,269.257,184.795,269.257z"/>
</g>
<g style="opacity:0.15;">
	<path d="M333.621,289.509c-2.036,0-4.073-0.777-5.628-2.331l-27.762-27.762c-3.108-3.108-3.108-8.147,0-11.254
		c3.109-3.108,8.147-3.108,11.254,0l27.762,27.762c3.108,3.108,3.108,8.147,0,11.253
		C337.695,288.731,335.658,289.509,333.621,289.509z"/>
	<path d="M305.86,289.509c-2.036,0-4.073-0.777-5.628-2.331c-3.108-3.108-3.108-8.147,0-11.253l27.762-27.762
		c3.109-3.108,8.147-3.108,11.254,0c3.108,3.108,3.108,8.147,0,11.254l-27.762,27.762
		C309.933,288.731,307.896,289.509,305.86,289.509z"/>
</g>
<g style="opacity:0.15;">
	<path d="M209.373,443.268c-2.036,0-4.073-0.777-5.628-2.331l-27.762-27.761c-3.108-3.108-3.108-8.147,0-11.254
		c3.109-3.108,8.147-3.108,11.254,0L215,429.684c3.108,3.108,3.108,8.147,0,11.253C213.447,442.491,211.41,443.268,209.373,443.268z
		"/>
	<path d="M181.612,443.268c-2.037,0-4.073-0.777-5.628-2.331c-3.108-3.108-3.108-8.147,0-11.253l27.762-27.762
		c3.11-3.108,8.148-3.108,11.255,0c3.108,3.108,3.108,8.147,0,11.254l-27.762,27.761
		C185.685,442.491,183.648,443.268,181.612,443.268z"/>
</g>
<g style="opacity:0.15;">
	<path d="M318.709,471.106c-2.036,0-4.073-0.777-5.628-2.331l-27.762-27.762c-3.108-3.108-3.108-8.147,0-11.253
		c3.109-3.108,8.147-3.108,11.254,0l27.762,27.761c3.108,3.108,3.108,8.147,0,11.254
		C322.782,470.328,320.745,471.106,318.709,471.106z"/>
	<path d="M290.947,471.106c-2.037,0-4.073-0.777-5.628-2.331c-3.108-3.108-3.108-8.147,0-11.254l27.762-27.761
		c3.11-3.109,8.148-3.108,11.254,0c3.108,3.108,3.108,8.147,0,11.253l-27.762,27.762
		C295.02,470.328,292.983,471.106,290.947,471.106z"/>
</g>
<path d="M330.385,318.739c-10.257,0-18.602,8.345-18.602,18.602c0,4.395,3.562,7.958,7.958,7.958c4.396,0,7.958-3.563,7.958-7.958
	c0-1.481,1.205-2.687,2.687-2.687c1.481,0,2.687,1.205,2.687,2.687c0,4.395,3.562,7.958,7.958,7.958
	c4.396,0,7.958-3.563,7.958-7.958C348.987,327.084,340.642,318.739,330.385,318.739z M181.612,318.739
	c-10.257,0-18.602,8.345-18.602,18.602c0,4.395,3.562,7.958,7.958,7.958c4.396,0,7.958-3.563,7.958-7.958
	c0-1.481,1.205-2.687,2.687-2.687c1.481,0,2.687,1.205,2.687,2.687c0,4.395,3.562,7.958,7.958,7.958s7.958-3.563,7.958-7.958
	C200.214,327.084,191.869,318.739,181.612,318.739z M379.776,252.314c-7.375-15.351-17.447-28.596-29.988-39.498
	c4.663-3.819,8.921-7.922,12.717-12.268c11.974-13.704,31.981-44.927,31.449-100.056c-0.055-5.593-2.498-10.907-6.702-14.58
	c-4.205-3.673-9.794-5.38-15.346-4.682c-2.316,0.291-4.949,0.668-7.822,1.148c0.244-29.389-9.535-56.373-15.861-70.692
	c-2.26-5.116-6.604-9.032-11.916-10.744c-5.313-1.712-11.125-1.07-15.949,1.763C309.645,9.002,290.6,21.674,274.609,40.12
	c-1.285-1.526-2.598-3.057-3.97-4.595c-3.72-4.176-9.056-6.571-14.639-6.571c-5.583,0-10.919,2.395-14.639,6.571
	c-1.372,1.54-2.685,3.07-3.97,4.595c-15.992-18.447-35.038-31.119-45.75-37.414c-4.821-2.833-10.633-3.477-15.948-1.763
	c-5.314,1.712-9.657,5.629-11.916,10.744c-6.326,14.32-16.105,41.304-15.861,70.693c-2.873-0.48-5.506-0.857-7.822-1.148
	c-5.546-0.697-11.141,1.009-15.346,4.682s-6.648,8.987-6.702,14.581c-0.533,55.128,19.474,86.349,31.449,100.053
	c3.796,4.346,8.054,8.449,12.717,12.268c-12.54,10.902-22.611,24.147-29.988,39.498c-10.014,20.845-15.093,45.685-15.093,73.829
	c0,63.347,3.474,105.946,21.233,136.234c10.004,17.06,24.094,29.297,43.074,37.408C200.671,508.004,225.061,512,256,512
	s55.33-3.996,74.562-12.216c18.981-8.112,33.07-20.348,43.074-37.408c17.758-30.288,21.233-72.887,21.233-136.234
	C394.868,297.998,389.79,273.16,379.776,252.314z M373.888,97.022c1.433-0.18,2.428,0.472,2.892,0.877
	c0.465,0.405,1.245,1.302,1.257,2.749c0.483,49.853-17.035,77.428-27.519,89.429c-4.007,4.587-8.648,8.87-13.826,12.787
	c-12.573-8.322-25.525-13.752-37.476-17.282c9.001-18.31,13.57-36.443,13.57-54.024c0-3.909-0.256-8.675-1.016-14.15
	C334.335,103.689,360.07,98.758,373.888,97.022z M328.417,16.428c1.251-0.733,2.42-0.525,3.005-0.337
	c0.586,0.189,1.656,0.703,2.241,2.029c6.037,13.664,15.541,39.896,14.432,67.598c-12.236,3.079-26.299,7.871-39.786,15.314
	c-3.918-13.871-11.063-30.311-23.716-48.056C299.452,34.938,318.124,22.477,328.417,16.428z M253.242,46.11
	c0.963-1.082,2.141-1.242,2.757-1.242c0.615,0,1.792,0.161,2.757,1.242c14.235,15.979,38.116,48.327,38.116,85.451
	c0,16.127-4.573,32.999-13.573,50.224c-11.653-2.143-21.353-2.584-27.3-2.584c-5.947,0-15.647,0.44-27.3,2.584
	c-9-17.225-13.573-34.096-13.573-50.224C215.126,94.438,239.008,62.088,253.242,46.11z M178.333,18.118
	c0.586-1.325,1.656-1.839,2.241-2.029c0.588-0.188,1.756-0.396,3.004,0.337c10.295,6.05,28.966,18.51,43.826,36.547
	c-12.653,17.745-19.797,34.185-23.716,48.056c-13.488-7.443-27.551-12.235-39.786-15.314
	C162.792,58.015,172.296,31.783,178.333,18.118z M161.478,190.077c-10.484-12-28.001-39.575-27.519-89.427
	c0.014-1.449,0.794-2.345,1.258-2.75c0.465-0.405,1.464-1.059,2.892-0.877c13.819,1.736,39.553,6.666,62.119,20.389
	c-0.761,5.475-1.016,10.241-1.016,14.15c0,17.581,4.569,35.714,13.57,54.024c-11.952,3.529-24.904,8.959-37.476,17.282
	C170.127,198.948,165.485,194.665,161.478,190.077z M255.999,496.085c-111.324,0-122.955-51.783-122.955-169.942
	c0-47.895,15.43-83.683,45.863-106.371c30.686-22.878,66.765-24.655,77.092-24.655s46.406,1.778,77.092,24.655
	c30.432,22.689,45.863,58.477,45.863,106.371C378.953,444.302,367.322,496.085,255.999,496.085z M280.981,334.826
	c-4.396,0-7.958,3.563-7.958,7.958c0,2.5-2.034,4.534-4.534,4.534c-2.499,0-4.534-2.034-4.534-4.534
	c0-4.395-3.562-7.958-7.958-7.958c-4.396,0-7.958,3.563-7.958,7.958c0,2.5-2.034,4.534-4.533,4.534c-2.5,0-4.534-2.034-4.534-4.534
	c0-4.395-3.562-7.958-7.958-7.958c-4.396,0-7.958,3.563-7.958,7.958c0,11.276,9.174,20.449,20.449,20.449
	c4.7,0,9.034-1.593,12.49-4.269c3.458,2.675,7.791,4.269,12.491,4.269c11.275,0,20.449-9.174,20.449-20.449
	C288.939,338.389,285.377,334.826,280.981,334.826z"/>
<g>
</g>
<g>
</g>
<g>
</g>
<g>
</g>
<g>
</g>
<g>
</g>
<g>
</g>
<g>
</g>
<g>
</g>
<g>
</g>
<g>
</g>
<g>
</g>
<g>
</g>
<g>
</g>
<g>
</g>
</svg>
